<svg width="201" height="52" viewBox="0 0 201 52" fill="none" xmlns="http://www.w3.org/2000/svg">
<g id="Group 3">
<g id="fast shop">
<path d="M92.3884 25.1066V22.9482H80.1328V40.3145H82.6137V33.2936H91.3217V31.16H82.6137V25.1066H92.3884Z" fill="#292C44"/>
<path d="M99.8612 27.0417C97.7524 27.0417 95.7925 27.6371 94.428 28.7287L95.4204 30.515C96.4375 29.6466 98.0253 29.1008 99.5883 29.1008C101.945 29.1008 103.111 30.2669 103.111 32.2764V32.7478H99.3402C95.4204 32.7478 94.0559 34.4844 94.0559 36.5931C94.0559 38.8756 95.9413 40.4633 98.9184 40.4633C100.978 40.4633 102.441 39.7687 103.235 38.5779V40.3145H105.493V32.3756C105.493 28.7783 103.458 27.0417 99.8612 27.0417ZM99.3154 38.6275C97.5043 38.6275 96.4127 37.8088 96.4127 36.4939C96.4127 35.3775 97.0826 34.4596 99.4394 34.4596H103.111V36.2954C102.516 37.8088 101.102 38.6275 99.3154 38.6275Z" fill="#292C44"/>
<path d="M113.671 40.4633C117.169 40.4633 119.352 38.95 119.352 36.5683C119.352 31.4577 111.017 33.9882 111.017 30.8871C111.017 29.8451 112.034 29.076 114.118 29.076C115.408 29.076 116.723 29.3489 117.914 30.118L118.931 28.2325C117.79 27.4883 115.854 27.0417 114.143 27.0417C110.769 27.0417 108.66 28.6295 108.66 30.9863C108.66 36.221 116.971 33.6657 116.971 36.618C116.971 37.7344 116.053 38.4042 113.845 38.4042C112.133 38.4042 110.347 37.8336 109.23 37.0397L108.238 38.9252C109.33 39.7935 111.488 40.4633 113.671 40.4633Z" fill="#292C44"/>
<path d="M128.978 37.8336C128.482 38.2305 127.812 38.4538 127.117 38.4538C125.802 38.4538 125.058 37.6599 125.058 36.2458V29.1257H128.829V27.1657H125.058V24.2879H122.676V27.1657H120.443V29.1257H122.676V36.3451C122.676 38.9996 124.19 40.4633 126.844 40.4633C127.911 40.4633 129.003 40.1656 129.722 39.5454L128.978 37.8336Z" fill="#292C44"/>
<path d="M144.672 40.513C149.262 40.513 151.396 38.2305 151.396 35.576C151.396 29.2001 140.877 31.8546 140.877 27.6123C140.877 26.099 142.142 24.8585 145.094 24.8585C146.632 24.8585 148.344 25.3051 149.857 26.2726L150.676 24.2879C149.237 23.2956 147.128 22.7498 145.094 22.7498C140.529 22.7498 138.445 25.0322 138.445 27.7115C138.445 34.1619 148.964 31.4825 148.964 35.7248C148.964 37.2382 147.674 38.4042 144.672 38.4042C142.44 38.4042 140.232 37.5607 138.941 36.3947L138.024 38.3298C139.413 39.6198 142.018 40.513 144.672 40.513Z" fill="#292C44"/>
<path d="M161.694 27.0417C159.684 27.0417 158.047 27.7612 157.054 29.0264V21.9062H154.673V40.3145H157.054V33.5416C157.054 30.6886 158.692 29.1753 161.222 29.1753C163.48 29.1753 164.77 30.4405 164.77 33.0207V40.3145H167.152V32.7478C167.152 28.8776 164.894 27.0417 161.694 27.0417Z" fill="#292C44"/>
<path d="M177.264 40.4633C181.208 40.4633 184.086 37.6599 184.086 33.7401C184.086 29.8203 181.208 27.0417 177.264 27.0417C173.319 27.0417 170.416 29.8203 170.416 33.7401C170.416 37.6599 173.319 40.4633 177.264 40.4633ZM177.264 38.3794C174.733 38.3794 172.823 36.5435 172.823 33.7401C172.823 30.9367 174.733 29.1257 177.264 29.1257C179.794 29.1257 181.68 30.9367 181.68 33.7401C181.68 36.5435 179.794 38.3794 177.264 38.3794Z" fill="#292C44"/>
<path d="M194.351 27.0417C192.416 27.0417 190.729 27.786 189.662 29.2497V27.1657H187.38V45.1274H189.761V38.3298C190.853 39.7439 192.49 40.4633 194.351 40.4633C198.196 40.4633 201 37.784 201 33.7401C201 29.7211 198.196 27.0417 194.351 27.0417ZM194.153 38.3794C191.647 38.3794 189.737 36.5435 189.737 33.7401C189.737 30.9615 191.647 29.1257 194.153 29.1257C196.683 29.1257 198.593 30.9615 198.593 33.7401C198.593 36.5435 196.683 38.3794 194.153 38.3794Z" fill="#292C44"/>
</g>
<g id="Standard Collection 7">
<g id="Group">
<path id="Vector" d="M69.8739 33.2091C69.8739 36.437 69.028 39.6085 67.4209 42.4079C65.8139 45.207 63.5014 47.5365 60.7142 49.164C57.9267 50.7918 54.7615 51.6607 51.5339 51.6845C48.306 51.7083 45.1283 50.8862 42.3173 49.2998C40.4274 50.6885 38.1797 51.5072 35.8396 51.6594C33.4995 51.8115 31.1645 51.2906 29.1109 50.1586C26.5632 51.1742 23.8445 51.6925 21.1019 51.6852C9.466 51.6852 0 42.5041 0 31.2183C0 19.9326 9.466 10.7515 21.1019 10.7515H21.1068C23.41 6.90839 26.8259 3.85515 30.9022 1.99562C34.9785 0.136098 39.5231 -0.442074 43.9352 0.337596C48.3474 1.11727 52.4188 3.21804 55.6109 6.362C58.8029 9.50595 60.9655 13.5449 61.8121 17.9446C64.3056 19.6318 66.3453 21.9069 67.7511 24.5691C69.1571 27.2313 69.8863 30.1986 69.8739 33.2091ZM42.1302 44.5643C42.5597 44.564 42.9792 44.6947 43.3326 44.9387C44.9014 46.0166 46.6707 46.769 48.5355 47.1515C50.4003 47.5339 52.3228 47.5383 54.1894 47.1647C56.0557 46.7908 57.8284 46.0466 59.4024 44.9759C60.9763 43.9052 62.3195 42.5297 63.3524 40.9307C64.3853 39.3319 65.087 37.5419 65.4164 35.667C65.7456 33.7921 65.6951 31.8701 65.2687 30.0152C64.842 28.16 64.0477 26.4093 62.9327 24.8664C61.8175 23.3236 60.4042 22.0201 58.7767 21.033C58.5097 20.8709 58.282 20.6518 58.1097 20.3913C57.9373 20.1309 57.8245 19.8357 57.7795 19.5266C57.2297 15.7833 55.5069 12.3107 52.8592 9.60824C50.2112 6.90575 46.7745 5.11253 43.0433 4.48644C39.312 3.86033 35.4784 4.43361 32.0932 6.12379C28.7082 7.81401 25.9466 10.5341 24.205 13.8929C24.0167 14.2577 23.7261 14.5597 23.3688 14.7619C23.0115 14.9641 22.603 15.0578 22.1933 15.0314C21.7741 15.0055 21.4266 14.9931 21.1 14.9931C11.8022 14.9931 4.23776 22.2724 4.23776 31.2194C4.23776 40.1663 11.8033 47.4454 21.1 47.4454C23.6183 47.4534 26.1078 46.9095 28.3933 45.8523C28.7277 45.6978 29.0964 45.6329 29.4633 45.6639C29.8302 45.6952 30.1826 45.8215 30.4858 46.0303C32.0187 47.0845 33.8695 47.5743 35.7231 47.4164C37.5765 47.2586 39.3179 46.4629 40.6505 45.1648C41.0466 44.7793 41.5775 44.5637 42.1302 44.5643Z" fill="#6AE0EC"/>
<path id="Vector_2" d="M23.854 23.7222H20.7027C20.5773 23.7222 20.4571 23.772 20.3684 23.8606C20.2798 23.9493 20.23 24.0695 20.23 24.1949V31.6005H20.238L24.3262 27.5123V24.1952C24.3263 24.0698 24.2766 23.9496 24.188 23.8609C24.0995 23.7722 23.9793 23.7223 23.854 23.7222Z" fill="#292C44"/>
<path id="Vector_3" d="M36.7604 20.2679C36.2812 19.7887 35.631 19.5194 34.9533 19.5194C34.2754 19.5194 33.6255 19.7887 33.1463 20.2679L25.1233 28.2909L24.3266 29.0878L20.2384 33.176L10.8687 42.5458C13.3708 44.3754 16.3163 45.5035 19.4006 45.813C22.4848 46.1227 25.5958 45.6029 28.4117 44.3071C28.746 44.1529 29.1145 44.0882 29.4814 44.1192C29.848 44.1505 30.2004 44.2768 30.5037 44.4853C32.0362 45.5395 33.8873 46.0293 35.7407 45.8714C37.5941 45.7136 39.3355 44.9177 40.6678 43.6196C41.0197 43.2778 41.4792 43.0682 41.968 43.027C42.457 42.9859 42.945 43.1153 43.3492 43.3934C45.7617 45.0551 48.6292 45.9307 51.5584 45.8997C54.4877 45.8686 57.336 44.933 59.7128 43.2206L36.7604 20.2679ZM34.7642 39.5619C34.7642 39.6579 34.7259 39.75 34.6581 39.8181C34.5901 39.8859 34.4979 39.9242 34.402 39.9242H31.4582C31.3622 39.9242 31.2701 39.8859 31.202 39.8181C31.134 39.75 31.0959 39.6579 31.0959 39.5619V36.6181C31.0959 36.5221 31.134 36.43 31.202 36.362C31.2701 36.2942 31.3622 36.2559 31.4582 36.2559H34.402C34.4979 36.2559 34.5901 36.2942 34.6581 36.362C34.7259 36.43 34.7642 36.5221 34.7642 36.6181V39.5619ZM34.7642 35.1037C34.7642 35.1997 34.7259 35.2918 34.6581 35.3598C34.5901 35.4279 34.4979 35.4659 34.402 35.4659H31.4582C31.3622 35.4659 31.2701 35.4279 31.202 35.3598C31.134 35.2918 31.0959 35.1997 31.0959 35.1037V32.1599C31.0959 32.0639 31.134 31.9718 31.202 31.9038C31.2701 31.836 31.3622 31.7977 31.4582 31.7977H34.402C34.4979 31.7977 34.5901 31.836 34.6581 31.9038C34.7259 31.9718 34.7642 32.0639 34.7642 32.1599V35.1037ZM39.4856 39.5619C39.4856 39.6579 39.4473 39.75 39.3795 39.8181C39.3114 39.8859 39.2193 39.9242 39.1233 39.9242H36.1795C36.0835 39.9242 35.9914 39.8859 35.9234 39.8181C35.8553 39.75 35.8173 39.6579 35.8173 39.5619V36.6181C35.8173 36.5221 35.8553 36.43 35.9234 36.362C35.9914 36.2942 36.0835 36.2559 36.1795 36.2559H39.1233C39.2193 36.2559 39.3114 36.2942 39.3795 36.362C39.4473 36.43 39.4856 36.5221 39.4856 36.6181V39.5619ZM39.4856 35.1037C39.4856 35.1997 39.4473 35.2918 39.3795 35.3598C39.3114 35.4279 39.2193 35.4659 39.1233 35.4659H36.1795C36.0835 35.4659 35.9914 35.4279 35.9234 35.3598C35.8553 35.2918 35.8173 35.1997 35.8173 35.1037V32.1599C35.8173 32.0639 35.8553 31.9718 35.9234 31.9038C35.9914 31.836 36.0835 31.7977 36.1795 31.7977H39.1233C39.2193 31.7977 39.3114 31.836 39.3795 31.9038C39.4473 31.9718 39.4856 32.0639 39.4856 32.1599V35.1037Z" fill="#292C44"/>
</g>
</g>
</g>
</svg>
